# xmcd CD database file
#
# Track frame offsets:
#	150
#	21415
#	34730
#	47750
#	61747
#	77890
#	89757
#	103780
#
# Disc length: 1587 seconds
#
# Revision: 6
# Processed by: cddbd v1.5.2PL0 Copyright (c) Steve Scherf et al.
# Submitted via: CDex 1.79
#
DISCID=66063108
DTITLE=Alan Jackson - Greatest Hits Volume II And Some Other Stuff
DYEAR=1900
DGENRE=Classic Country
TTITLE0=Alan Jackson - Job Description
TTITLE1=Alan Jackson - Tropical Depression - #75 Cty - 1993
TTITLE2=Alan Jackson - Let's Get Back To Me And You
TTITLE3=Alan Jackson - You Can't Give Up On Love
TTITLE4=Alan Jackson - Hole In The Wall
TTITLE5=Alan Jackson - Buicks To The Moon
TTITLE6=Alan Jackson - When Love Comes Around
TTITLE7=Alan Jackson - The Sounds
EXTD=
EXTT0=
EXTT1=
EXTT2=
EXTT3=
EXTT4=
EXTT5=
EXTT6=
EXTT7=
PLAYORDER=
